<?xml version="1.0" encoding="utf-8"?>
<!-- Generator: Adobe Illustrator 19.0.0, SVG Export Plug-In . SVG Version: 6.00 Build 0)  -->
<svg version="1.1" id="Layer_1" xmlns="http://www.w3.org/2000/svg" xmlns:xlink="http://www.w3.org/1999/xlink" x="0px" y="0px"
	 viewBox="0 0 400 400" style="enable-background:new 0 0 400 400;" xml:space="preserve">
<style type="text/css">
	.st0{opacity:0.8;fill:#3F51B5;}
	.st1{fill:#8BC34A;}
	.st2{opacity:0.8;fill:#00BCD4;}
	.st3{fill:#4285F4;}
	.st4{fill:#00BCD4;}
	.st5{opacity:0.8;fill:#009688;}
	.st6{opacity:0.8;fill:#8BC34A;}
	.st7{opacity:0.6;fill:#4285F4;}
	.st8{opacity:0.6;fill:#00BCD4;}
	.st9{fill:#3F51B5;}
	.st10{opacity:0.6;fill:#8BC34A;}
	.st11{opacity:0.6;fill:#009688;}
	.st12{opacity:0.6;fill:#3F51B5;}
</style>
<g id="XMLID_27_">
	<g id="XMLID_13_">
		<g id="XMLID_11_">
		</g>
		<g id="XMLID_2_">
		</g>
		<g id="XMLID_12_">
		</g>
		<g id="XMLID_14_">
		</g>
		<g id="XMLID_22_">
		</g>
	</g>
	<g id="XMLID_28_">
		<g id="XMLID_49_">
		</g>
		<g id="XMLID_44_">
		</g>
		<g id="XMLID_39_">
		</g>
		<g id="XMLID_34_">
		</g>
		<g id="XMLID_29_">
		</g>
	</g>
	<g id="XMLID_54_">
		<g id="XMLID_75_">
		</g>
		<g id="XMLID_70_">
		</g>
		<g id="XMLID_65_">
		</g>
		<g id="XMLID_60_">
		</g>
		<g id="XMLID_55_">
		</g>
	</g>
	<g id="XMLID_80_">
		<g id="XMLID_101_">
		</g>
		<g id="XMLID_96_">
		</g>
		<g id="XMLID_91_">
		</g>
		<g id="XMLID_86_">
		</g>
		<g id="XMLID_81_">
		</g>
	</g>
	<g id="XMLID_106_">
		<g id="XMLID_127_">
		</g>
		<g id="XMLID_122_">
		</g>
		<g id="XMLID_117_">
		</g>
		<g id="XMLID_112_">
		</g>
		<g id="XMLID_107_">
		</g>
	</g>
	<g id="XMLID_132_">
		<g id="XMLID_153_">
		</g>
		<g id="XMLID_148_">
		</g>
		<g id="XMLID_143_">
		</g>
		<g id="XMLID_138_">
		</g>
		<g id="XMLID_133_">
		</g>
	</g>
</g>
<polygon class="st0" points="218,0 400,0 181.3,110 "/>
<polygon class="st1" points="400,0 282.7,200 249,76 "/>
<polygon class="st2" points="249,76 181.3,110 86,80 106.7,202.7 204.7,168.7 "/>
<polygon class="st3" points="249,76 204.7,168.7 294,307.3 368,226.7 340.7,163.3 282.7,200 "/>
<polygon class="st4" points="400,0 282.7,200 340.7,163.3 368,226.7 400,208 "/>
<polygon class="st0" points="204.7,168.7 106.7,202.7 58,276.7 162,330.7 188,258.7 128.7,249.7 "/>
<polygon class="st5" points="128.7,249.7 204.7,168.7 270.9,271.4 188,258.7 "/>
<polygon class="st6" points="188,258.7 162,330.7 241.3,383.3 294,307.3 270.9,271.4 "/>
<polygon class="st7" points="86,80 38.7,48.7 96,24 146.7,39.3 152,0 218,0 181.3,110 "/>
<polygon class="st8" points="241.3,383.3 192.7,400 138,366 60.7,400 16.7,356.7 117.1,307.3 162,330.7 "/>
<polygon class="st9" points="400,208 400,334.8 294,307.3 368,226.7 "/>
<polygon class="st3" points="241.3,383.3 400,334.8 294,307.3 "/>
<polygon class="st1" points="241.3,383.3 400,400 400,334.8 "/>
<polygon class="st5" points="192.7,400 241.3,383.3 400,400 "/>
<polygon class="st10" points="146.7,39.3 96,24 32.3,0 152,0 "/>
<polygon class="st6" points="86,80 58,276.7 106.7,202.7 "/>
<polygon class="st11" points="58,276.7 0,286.7 16.7,356.7 117.1,307.3 "/>
<polygon class="st12" points="96,24 38.7,48.7 0,0 32.3,0 "/>
<polygon class="st7" points="86,80 0,164.5 58,276.7 "/>
</svg>
